<?xml version="1.0" standalone="no"?>
<!DOCTYPE svg PUBLIC "-//W3C//DTD SVG 20010904//EN"
 "http://www.w3.org/TR/2001/REC-SVG-20010904/DTD/svg10.dtd">
<svg version="1.0" xmlns="http://www.w3.org/2000/svg"
 width="225.000000pt" height="225.000000pt" viewBox="0 0 225.000000 225.000000"
 preserveAspectRatio="xMidYMid meet">

<g transform="translate(0.000000,225.000000) scale(0.100000,-0.100000)"
fill="#000000" stroke="none">
<path d="M585 1476 c-61 -19 -165 -71 -165 -82 0 -2 36 14 81 36 90 44 175 65
223 56 33 -6 75 -44 117 -106 27 -41 48 -59 69 -60 9 0 7 5 -8 16 -12 8 -38
40 -57 70 -62 97 -125 114 -260 70z"/>
<path d="M1178 1493 c7 -3 16 -2 19 1 4 3 -2 6 -13 5 -11 0 -14 -3 -6 -6z"/>
<path d="M1275 1431 c33 -16 76 -43 95 -60 29 -25 33 -32 20 -41 -11 -7 -2
-10 36 -10 28 0 67 -3 85 -6 l34 -6 -45 32 c-63 44 -146 85 -209 104 -79 23
-84 20 -16 -13z"/>
<path d="M1350 1450 c8 -5 20 -10 25 -10 6 0 3 5 -5 10 -8 5 -19 10 -25 10 -5
0 -3 -5 5 -10z"/>
<path d="M1391 1436 c10 -9 89 -46 89 -41 0 5 -75 45 -86 45 -4 0 -5 -2 -3 -4z"/>
<path d="M1490 1388 c0 -2 22 -20 48 -41 40 -30 59 -37 108 -41 l59 -5 -55 10
c-31 5 -72 22 -95 38 -47 33 -65 43 -65 39z"/>
<path d="M673 1369 c-44 -13 -42 -18 5 -12 49 6 92 -11 92 -37 0 -23 13 -26
29 -6 16 19 3 46 -26 57 -29 11 -57 10 -100 -2z"/>
<path d="M1157 1289 c168 -25 326 -82 441 -161 l46 -32 -23 33 c-34 47 -92 86
-180 120 -96 37 -174 51 -270 50 l-76 -1 62 -9z"/>
<path d="M1448 1293 c6 -2 18 -2 25 0 6 3 1 5 -13 5 -14 0 -19 -2 -12 -5z"/>
<path d="M1733 1293 c9 -2 23 -2 30 0 6 3 -1 5 -18 5 -16 0 -22 -2 -12 -5z"/>
<path d="M1562 1276 c109 -20 283 -71 396 -116 l97 -39 -44 39 c-90 82 -205
117 -406 125 l-120 5 77 -14z"/>
<path d="M1890 1264 c58 -13 118 -28 134 -34 16 -5 40 -10 53 -10 30 0 93 -60
93 -88 0 -11 7 -25 15 -32 8 -7 22 -33 30 -59 15 -45 15 -45 9 -7 -3 21 -14
55 -25 75 -10 20 -19 41 -19 47 0 24 -54 64 -108 80 -66 19 -245 54 -270 53
-9 0 30 -11 88 -25z"/>
<path d="M1240 1209 c30 -17 64 -39 75 -48 l20 -16 -20 24 c-11 13 -33 32 -50
43 l-30 18 35 -6 c77 -12 136 -27 163 -41 16 -8 31 -13 33 -10 3 2 -18 14 -47
26 -53 23 -139 41 -199 41 l-35 0 55 -31z"/>
<path d="M168 1214 c-55 -17 -76 -37 -26 -26 18 4 107 7 198 6 182 -1 260 -13
483 -79 66 -20 120 -35 121 -33 30 53 61 88 87 101 44 21 16 22 -45 1 -44 -15
-55 -15 -174 5 -208 34 -289 41 -447 40 -101 0 -165 -5 -197 -15z"/>
<path d="M1103 1198 c46 -12 101 -64 118 -111 l12 -35 25 36 24 36 -30 28
c-33 28 -118 59 -161 57 -21 -1 -18 -3 12 -11z"/>
<path d="M2083 1178 c2 -7 9 -13 16 -13 6 0 16 -7 21 -15 5 -8 10 -10 10 -4 0
12 -32 44 -44 44 -4 0 -6 -6 -3 -12z"/>
<path d="M151 1146 l-22 -23 25 4 c34 7 71 -18 95 -65 27 -51 27 -12 0 48 -30
67 -59 78 -98 36z"/>
<path d="M1480 1166 c0 -3 9 -10 20 -16 11 -6 20 -8 20 -6 0 3 -9 10 -20 16
-11 6 -20 8 -20 6z"/>
<path d="M1055 1086 c-83 -36 -119 -157 -76 -251 10 -22 25 -46 33 -53 14 -11
15 -9 2 25 -44 123 34 260 143 251 47 -3 46 8 -3 28 -41 17 -60 17 -99 0z"/>
<path d="M137 1052 c-8 -9 -20 -30 -26 -45 -16 -42 -13 -169 4 -211 17 -41 30
-50 15 -10 -6 14 -10 58 -10 97 1 95 26 155 70 164 22 4 28 8 18 14 -22 14
-54 10 -71 -9z"/>
<path d="M1555 1050 c124 -29 270 -43 375 -37 170 11 155 22 -33 23 -118 0
-220 6 -290 17 -136 22 -154 20 -52 -3z"/>
<path d="M170 971 c-15 -30 -13 -154 4 -177 23 -31 40 -3 44 74 5 96 -21 153
-48 103z"/>
<path d="M1101 964 c-57 -72 13 -186 85 -139 34 22 48 56 40 99 -12 66 -86 89
-125 40z"/>
<path d="M1526 960 c28 -11 74 -67 74 -91 0 -13 7 -19 23 -18 30 0 106 16 87
18 -9 0 -38 20 -65 42 -54 45 -84 59 -118 58 -22 0 -22 0 -1 -9z"/>
<path d="M2133 944 c-40 -56 -67 -86 -87 -94 -21 -9 -21 -9 -1 -9 29 -1 62 25
81 62 9 18 26 40 38 49 18 15 18 18 4 18 -9 0 -25 -12 -35 -26z"/>
<path d="M498 913 c12 -2 30 -2 40 0 9 3 -1 5 -23 4 -22 0 -30 -2 -17 -4z"/>
<path d="M585 904 c107 -17 260 -46 271 -52 7 -4 -80 -6 -194 -4 -114 1 -238
-1 -277 -6 -57 -8 -30 -10 155 -11 207 -1 301 -8 372 -26 l28 -7 -26 45 c-29
53 -32 54 -229 61 -71 2 -116 2 -100 0z"/>
<path d="M1260 844 c0 -31 7 -33 63 -18 29 8 70 14 92 15 39 1 40 1 12 11 -20
7 -46 7 -89 -2 -50 -9 -62 -9 -69 2 -6 9 -9 7 -9 -8z"/>
</g>
</svg>
